<?xml version="1.0" encoding="UTF-8"?>
<svg xmlns="http://www.w3.org/2000/svg" font-family="Arial, Helvetica, sans-serif" font-size="17" viewBox="0 0 600 303">
  <path d="M0 0h600v303H0z" fill="#fff"/>
  <text fill="#555" transform="translate(30 16)">

      <tspan x="0" y="0">Seconds</tspan>
  </text>
  <text transform="translate(4 52)">ELDC pyc</text>
    <path d="M126 30h93v30H126z" fill="#dfd"/>
    <text transform="translate(132 52)">0.81"</text>
    <path d="M219 30h93v30H219z" fill="#dfd"/>
    <text transform="translate(225 52)">0.26"</text>
    <path d="M312 30h93v30H312z" fill="#dfd"/>
    <text transform="translate(318 52)">0.22"</text>
    <path d="M405 30h93v30H405z" fill="#dfd"/>
    <text transform="translate(411 52)">0.08"</text>
    <path d="M498 30h102v30H498z" fill="#dfd"/>
    <text transform="translate(504 52)">0.07"</text>
  <text transform="translate(4 82)">Lingua</text>
    <path d="M126 60h93v30H126z" fill="#fee"/>
    <text transform="translate(132 82)">98"</text>
    <path d="M219 60h93v30H219z" fill="#fee"/>
    <text transform="translate(225 82)">27"</text>
    <path d="M312 60h93v30H312z" fill="#fee"/>
    <text transform="translate(318 82)">24"</text>
    <path d="M405 60h93v30H405z" fill="#fee"/>
    <text transform="translate(411 82)">8.2"</text>
    <path d="M498 60h102v30H498z" fill="#fee"/>
    <text transform="translate(504 82)">5.9"</text>
  <text transform="translate(4 112)">fasttext-subset</text>
    <path d="M126 90h93v30H126z" fill="#ffc"/>
    <text transform="translate(132 112)">12"</text>
    <path d="M219 90h93v30H219z" fill="#ffc"/>
    <text transform="translate(225 112)">2.7"</text>
    <path d="M312 90h93v30H312z" fill="#ffc"/>
    <text transform="translate(318 112)">2.3"</text>
    <path d="M405 90h93v30H405z" fill="#ffc"/>
    <text transform="translate(411 112)">1.2"</text>
    <path d="M498 90h102v30H498z" fill="#ffc"/>
    <text transform="translate(504 112)">1.1"</text>
  <text transform="translate(4 142)">fasttext-all</text>
    <path d="M126 120h93v30H126z" fill="#fff"/>
    <text transform="translate(132 142)">--</text>
    <path d="M219 120h93v30H219z" fill="#ffc"/>
    <text transform="translate(225 142)">2.4"</text>
    <path d="M312 120h93v30H312z" fill="#ffc"/>
    <text transform="translate(318 142)">2.0"</text>
    <path d="M405 120h93v30H405z" fill="#ffc"/>
    <text transform="translate(411 142)">0.91"</text>
    <path d="M498 120h102v30H498z" fill="#ffc"/>
    <text transform="translate(504 142)">0.73"</text>
  <text transform="translate(4 172)">CLD2</text>
    <path d="M126 150h93v30H126z" fill="#ffc"/>
    <text transform="translate(132 172)">3.5"</text>
    <path d="M219 150h93v30H219z" fill="#ffc"/>
    <text transform="translate(225 172)">0.71"</text>
    <path d="M312 150h93v30H312z" fill="#ffc"/>
    <text transform="translate(318 172)">0.59"</text>
    <path d="M405 150h93v30H405z" fill="#ffc"/>
    <text transform="translate(411 172)">0.35"</text>
    <path d="M498 150h102v30H498z" fill="#ffc"/>
    <text transform="translate(504 172)">0.32"</text>
  <text transform="translate(4 202)">Lingua-low</text>
    <path d="M126 180h93v30H126z" fill="#fec"/>
    <text transform="translate(132 202)">37"</text>
    <path d="M219 180h93v30H219z" fill="#fec"/>
    <text transform="translate(225 202)">13"</text>
    <path d="M312 180h93v30H312z" fill="#fec"/>
    <text transform="translate(318 202)">11"</text>
    <path d="M405 180h93v30H405z" fill="#fec"/>
    <text transform="translate(411 202)">3.0"</text>
    <path d="M498 180h102v30H498z" fill="#fec"/>
    <text transform="translate(504 202)">2.3"</text>
  <text transform="translate(4 232)">franc</text>
    <path d="M126 210h93v30H126z" fill="#fec"/>
    <text transform="translate(132 232)">43"</text>
    <path d="M219 210h93v30H219z" fill="#fec"/>
    <text transform="translate(225 232)">10"</text>
    <path d="M312 210h93v30H312z" fill="#fec"/>
    <text transform="translate(318 232)">9"</text>
    <path d="M405 210h93v30H405z" fill="#fec"/>
    <text transform="translate(411 232)">4.1"</text>
    <path d="M498 210h102v30H498z" fill="#fec"/>
    <text transform="translate(504 232)">3.2"</text>
  <text transform="translate(4 264)">ELDC &lt;file&gt;</text>
    <path d="M126 242h93v30H126z" fill="#dfd"/>
    <text transform="translate(132 264)">0.43"</text>
    <path d="M219 242h93v30H219z" fill="#dfd"/>
    <text transform="translate(225 264)">0.19"</text>
    <path d="M312 242h93v30H312z" fill="#dfd"/>
    <text transform="translate(318 264)">0.16"</text>
    <path d="M405 242h93v30H405z" fill="#dfd"/>
    <text transform="translate(411 264)">0.05"</text>
    <path d="M498 242h102v30H498z" fill="#dfd"/>
    <text transform="translate(504 264)">0.03"</text>
  <text transform="translate(4 294)">ELDC &lt;file&gt; -t4</text>
    <path d="M126 272h93v30H126z" fill="#dfd"/>
    <text transform="translate(132 294)">0.18"</text>
    <path d="M219 272h93v30H219z" fill="#dfd"/>
    <text transform="translate(225 294)">0.08"</text>
    <path d="M312 272h93v30H312z" fill="#dfd"/>
    <text transform="translate(318 294)">0.06"</text>
    <path d="M405 272h93v30H405z" fill="#dfd"/>
    <text transform="translate(411 294)">0.02"</text>
    <path d="M498 272h102v30H498z" fill="#dfd"/>
    <text transform="translate(504 294)">0.01"</text>
  <g fill="#ddd">
    <path d="M0 30h600v1H0z"/>
    <path d="M0 60h600v1H0z"/>
    <path d="M0 90h600v1H0z"/>
    <path d="M0 120h600v1H0z"/>
    <path d="M0 150h600v1H0z"/>
    <path d="M0 180h600v1H0z"/>
    <path d="M0 210h600v1H0z"/>
    <path d="M0 240h600v3H0z"/>
    <path d="M0 272h600v1H0z"/>
    <path d="M0 302h600v1H0z"/>
  </g>
  <path d="M0 0h1v303H0zm126 0h1v303h-1zm93 0h1v303h-1zm93 0h1v303h-1zm93 0h1v303h-1zm93 0h1v303h-1zm101 0h1v303h-1z" fill="#ddd"/>
  <g font-size="16" font-weight="700">
    <text transform="translate(130 21)"><tspan>Tatoeba-50</tspan></text>
    <text transform="translate(223 21)"><tspan>ELD test</tspan></text>
    <text transform="translate(316 21)"><tspan>Sentences</tspan></text>
    <text transform="translate(409 21)"><tspan>Word pairs</tspan></text>
    <text font-size="15.4" transform="translate(502 21)"><tspan>Single words</tspan></text>
  </g>
  <path d="M0 0h1v302H0zm126 0h1v302h-1zm0" fill="none"/>
</svg>